Coordinates
version=1
nRows=19
nColumns=36
inDegrees=yes

Units are S.I. units (second, meters, Newtons, ...)
If the header above contains a line with 'inDegrees', this indicates whether rotational values are in degrees (yes) or radians (no).

endheader
time	pelvis_tilt	pelvis_list	pelvis_rotation	pelvis_tx	pelvis_ty	pelvis_tz	hip_flexion_r	hip_adduction_r	hip_rotation_r	knee_angle_r	knee_angle_r_beta	ankle_angle_r	subtalar_angle_r	mtp_angle_r	hip_flexion_l	hip_adduction_l	hip_rotation_l	knee_angle_l	knee_angle_l_beta	ankle_angle_l	subtalar_angle_l	mtp_angle_l	lumbar_extension	lumbar_bending	lumbar_rotation	arm_flex_r	arm_add_r	arm_rot_r	elbow_flex_r	pro_sup_r	arm_flex_l	arm_add_l	arm_rot_l	elbow_flex_l	pro_sup_l
      0.00000000	     10.76787816	      1.80567832	      4.97663620	      1.15005425	      0.93806427	      0.07972454	    -15.27661882	      4.58910879	      0.05534632	      2.57371751	      0.04491984	     11.92757257	     -0.35534615	     -7.23154586	     -9.70019593	     -2.84893745	     -2.20974946	     20.19840891	      0.35252874	      7.29738648	    -11.98659967	     -7.23154586	    -10.64130258	      0.85167725	     -3.22396278	     52.20258064	      2.22816878	     60.66304766	    111.51958367	     70.59505503	     55.45360451	      4.53862372	     61.76725784	    112.21358148	     78.80225883
      0.01666670	     11.20897409	      1.21563344	      4.50487440	      1.15001727	      0.93532059	      0.07931075	    -15.94829750	      5.53534548	      0.40356676	      2.32717268	      0.04061683	     13.11905722	     -1.21915966	     -7.31563003	    -10.51331932	     -3.84442652	     -4.01430768	     19.16354945	      0.33446703	      9.49824388	     -9.71730252	     -7.31563003	    -11.65592551	      2.20438159	     -1.88083838	     56.59839337	      0.14799936	     68.85557167	    119.18606887	     85.22095513	     57.59755012	      3.65902411	     60.69205022	    116.87566354	     94.03851101
      0.03333330	     12.38398535	      0.84458463	      3.75949199	      1.14849228	      0.93330720	      0.07996231	    -17.01994599	      6.17083034	      2.03021048	      3.05325415	      0.05328934	     13.24366514	     -1.38208140	     -7.36055390	    -11.69662604	     -4.61024589	     -5.29817565	     18.79703855	      0.32807021	      9.43563550	     -8.75880525	     -7.36055390	    -13.00172424	      2.87306226	     -2.20100366	     57.48885764	      1.89219884	     68.27573928	    119.82998872	     88.56723341	     58.85590825	      1.71416376	     60.87096895	    118.66593658	    100.22863790
      0.05000000	     13.09031893	      0.87925977	      3.93260199	      1.14654524	      0.93306132	      0.08002798	    -17.82431260	      6.60539702	      2.15643819	      3.20459782	      0.05593078	     13.86688436	     -1.10521970	     -7.37176868	    -12.11218456	     -5.01490560	     -5.18404477	     18.89467262	      0.32977425	      9.77714576	     -8.67478141	     -7.37176868	    -13.94806581	      2.96025057	     -2.33097562	     57.69929509	      2.87577700	     68.15156137	    119.98915122	     87.97542376	     60.02437010	      1.14944851	     61.92288406	    119.55102330	     99.51073705
      0.06666670	     14.15656197	      1.07821165	      3.74028989	      1.14448782	      0.92853583	      0.08058406	    -18.94253019	      6.74160496	      2.49925249	      3.37786408	      0.05895485	     14.46100870	     -1.01357057	     -7.41076354	    -12.89132671	     -5.15850230	     -5.35704746	     19.43279394	      0.33916624	     10.01030386	     -8.95341079	     -7.41076354	    -15.44494963	      2.89679149	     -2.29962112	     58.62417070	      3.89708391	     67.65626244	    118.54332016	     89.82751421	     61.69511004	      0.81043166	     61.66029517	    119.98732760	    103.36660267
      0.08333330	     15.08050548	      1.35411091	      3.65269852	      1.14306800	      0.93261211	      0.08150155	    -20.05389867	      6.71003936	      2.66398021	      3.42331043	      0.05974804	     14.69882922	     -1.09140746	     -7.41238994	    -13.30489907	     -5.17374034	     -5.46259493	     20.40186319	      0.35607969	      9.83956822	     -9.49257285	     -7.41238994	    -16.75870339	      2.77332879	     -2.08256570	     58.68090007	      4.24194369	     67.47920308	    117.58361119	     89.76476984	     62.72835698	      0.68122476	     61.90239595	    120.27458161	    103.42331862
      0.10000000	     16.00204923	      1.78207172	      3.60601728	      1.14175016	      0.93325079	      0.08204900	    -21.27363390	      6.49070676	      2.76708354	      3.28587674	      0.05734937	     14.63551310	     -1.39439894	     -7.42535293	    -13.80555982	     -4.97143525	     -5.52082620	     21.22984116	      0.37053063	      9.45170522	    -10.00841010	     -7.42535293	    -18.07824826	      2.52789814	     -1.95005505	     58.77684058	      4.56982499	     67.21102296	    117.01893996	     87.63168063	     63.60300117	      0.60878874	     62.21273115	    120.76002747	    101.42583222
      0.11666670	     16.94436577	      2.17023816	      3.50860327	      1.13968768	      0.93402724	      0.08216002	    -22.42869354	      6.24688904	      2.68082083	      3.30592921	      0.05769935	     14.75405562	     -1.33857708	     -7.43292795	    -14.23098361	     -4.73956255	     -5.56313527	     22.22549716	      0.38790810	      9.22935965	    -10.50766354	     -7.43292795	    -19.38837221	      2.37393054	     -1.75695345	     59.26611646	      5.03916817	     66.98935338	    116.00822171	     87.85345265	     64.32929128	      0.61677071	     62.36580614	    120.79654602	    103.34750135
      0.13333330	     17.59402684	      2.56872927	      3.51764299	      1.13941342	      0.93495502	      0.08312880	    -23.29753600	      6.01839865	      2.55950403	      3.26749666	      0.05702857	     14.79801081	     -1.33887779	     -7.44902879	    -14.13862609	     -4.53353354	     -5.46797119	     23.48652701	      0.40991723	      8.87303156	    -11.01171693	     -7.44902879	    -20.28345004	      2.15857894	     -1.74847110	     59.31317033	      5.32975223	     66.64305565	    115.51876338	     86.33671244	     64.65234757	      0.44662854	     62.53422721	    121.04420221	    102.38920311
      0.15000000	     18.09508468	      2.93251805	      3.49245010	      1.13845443	      0.93566376	      0.08372726	    -24.03096399	      5.80215604	      2.67728446	      3.17451286	      0.05540570	     14.78499140	     -1.60611746	     -7.45527974	    -13.68599372	     -4.38175530	     -5.48684916	     25.04453767	      0.43710964	      8.44008624	    -11.51712142	     -7.45527974	    -20.94229541	      1.94051979	     -1.61031759	     59.29810206	      5.34546603	     66.49118443	    115.71685696	     85.15043614	     64.70371566	      0.20089869	     62.94374769	    121.19853185	    101.54766862
      0.16666670	     18.46537382	      3.28888955	      3.49952843	      1.13800781	      0.93563858	      0.08413767	    -24.61611414	      5.60712283	      2.64195674	      3.02607781	      0.05281502	     14.88997935	     -1.60139943	     -7.47740614	    -12.78732718	     -4.24466235	     -5.34617695	     27.10283159	      0.47303365	      8.16088935	    -12.17370382	     -7.47740614	    -21.44706948	      1.67506672	     -1.50187065	     59.02035581	      5.52844843	     66.00096434	    115.73633777	     86.58094718	     64.72399076	      0.43988834	     63.17174986	    121.34770950	    102.96116078
      0.18333330	     18.77172144	      3.56935854	      3.42669350	      1.13793255	      0.93903535	      0.08497732	    -25.16534109	      5.44043332	      2.83682862	      2.80230778	      0.04890950	     14.85783347	     -1.71998713	     -7.47779148	    -11.89896530	     -4.11569804	     -5.26485074	     29.06519395	      0.50728333	      7.95463718	    -12.71501898	     -7.47779148	    -21.90941742	      1.49181783	     -1.34715544	     58.79326392	      5.53335300	     65.76464389	    115.52945519	     86.56261012	     64.51286860	      0.53318848	     63.48346185	    121.53228484	    102.97321703
      0.20000000	     18.75235124	      3.81891384	      3.37004574	      1.13765532	      0.94083734	      0.08511281	    -25.39843931	      5.25240210	      3.28356855	      2.54302263	      0.04438412	     14.61622045	     -2.11880011	     -7.48111259	    -10.79494314	     -3.93962043	     -5.23644660	     30.75371012	      0.53675350	      7.61758723	    -13.12941161	     -7.48111259	    -21.78482613	      1.27493571	     -1.45907900	     57.81123175	      5.49964800	     65.56396433	    115.51583321	     84.44463459	     63.64261005	      0.26962836	     63.46798130	    121.36586171	    101.22060819
      0.21666670	     18.74728883	      4.05133233	      3.44776262	      1.13731186	      0.94108750	      0.08536430	    -25.60302410	      5.11620615	      3.27149203	      2.27224529	      0.03965816	     14.56837903	     -1.92432346	     -7.48818578	     -9.71879400	     -3.76522136	     -5.05056131	     32.19522880	      0.56191275	      7.38411022	    -13.51222830	     -7.48818578	    -21.77236672	      1.10204400	     -1.81645788	     57.39473404	      5.76186791	     65.24812483	    114.80507488	     86.98051633	     63.55358619	      0.12346672	     63.32034617	    121.21002788	    103.12811296
      0.23333330	     18.65271354	      4.21409086	      3.47066292	      1.13728878	      0.94265136	      0.08521503	    -25.67776183	      5.01189646	      3.47732840	      1.98366077	      0.03462141	     14.45612906	     -1.83731155	     -7.49228414	     -8.59330411	     -3.62669544	     -4.98280291	     33.49701147	      0.58463314	      7.05496611	    -13.83154940	     -7.49228414	    -21.57317815	      1.02979692	     -1.94224985	     56.80124738	      5.76669579	     65.25784466	    114.61987107	     86.58227811	     63.00756660	     -0.11477758	     63.25283873	    121.08714109	    102.63943113
      0.25000000	     18.50788131	      4.34947128	      3.43962208	      1.13707723	      0.94275618	      0.08560677	    -25.69473560	      4.91579583	      3.97284876	      1.65714272	      0.02892260	     14.16745229	     -2.03489566	     -7.49470355	     -7.37431469	     -3.54523542	     -5.09121596	     34.77813037	      0.60699288	      6.84788030	    -13.97124586	     -7.49470355	    -21.25123888	      0.95759945	     -1.83001937	     56.26886082	      5.70880203	     65.04612338	    114.55267358	     87.37187210	     62.42359879	     -0.05397585	     63.06965354	    120.82697374	    103.32957768
      0.26666670	     18.39365099	      4.47308891	      3.35739237	      1.13728104	      0.94225420	      0.08568400	    -25.70854150	      4.77086542	      4.01343772	      1.40352379	      0.02449611	     14.20188612	     -1.55788284	     -7.49612379	     -6.39682217	     -3.27253328	     -4.91375966	     35.61466597	      0.62159318	      6.84729661	    -14.19395169	     -7.49612379	    -20.82810557	      0.94096841	     -1.56308532	     55.84636765	      5.58695073	     64.85750069	    114.26347483	     85.82098236	     61.63899135	      0.02863838	     62.76928222	    120.18156731	    100.10182105
      0.28333330	     18.15728703	      4.55875281	      3.24674528	      1.13790493	      0.94291173	      0.08670621	    -25.54251181	      4.67226918	      4.34081311	      1.18675576	      0.02071280	     14.20687267	     -1.19302774	     -7.49620842	     -5.26005489	     -3.03732825	     -4.95467564	     36.11559216	      0.63033599	      7.07853513	    -14.11411093	     -7.49620842	    -20.35920745	      0.90192142	     -1.21509271	     55.49514330	      5.50701627	     65.02867540	    113.99937415	     85.62035620	     61.07022537	     -0.02027233	     62.74140048	    119.86349203	     99.76530368
      0.30000000	     18.00763740	      4.66162875	      3.21554953	      1.13316078	      0.94443411	      0.08987792	    -25.40759429	      4.59907632	      4.72642644	      0.99151493	      0.01730520	     13.86319396	     -1.46229972	     -7.49630162	     -4.18923464	     -2.77853235	     -4.99420241	     36.23445524	      0.63241055	      7.76632732	    -13.71478942	     -7.49630162	    -20.07827936	      0.93436811	     -0.78318440	     55.19568485	      5.34521731	     65.03483068	    113.51067424	     85.87368542	     60.34191246	      0.22337568	     62.06535513	    119.73692813	    100.15188103
